<svg width="512" height="512" viewBox="0 0 100 100" xmlns="http://www.w3.org/2000/svg">
  <rect width="100" height="100" fill="white"/>

  <defs>
    <style>
      .blue-stripe { fill: none; stroke: #004B9B; stroke-width: 10; stroke-linecap: butt; }
      .red-stripe { fill: none; stroke: #E81E25; stroke-width: 10; stroke-linecap: butt; }
      .border { fill: none; stroke: #004B9B; stroke-width: 3; }
    </style>
  </defs>

  <path d="M 0,42 L 32,42 A 15,15 0 0,0 47,27 L 47,0" class="blue-stripe" />
  
  <path d="M 0,52 L 32,52 A 25,25 0 0,0 57,27 L 57,0" class="red-stripe" />
  
  <path d="M 0,62 L 32,62 A 35,35 0 0,0 67,27 L 67,0" class="blue-stripe" />
  
  <path d="M 0,72 L 32,72 A 45,45 0 0,0 77,27 L 77,0" class="red-stripe" />
  
  <path d="M 0,82 L 32,82 A 55,55 0 0,0 87,27 L 87,0" class="blue-stripe" />

  <rect x="1.5" y="1.5" width="97" height="97" class="border" />
</svg>